<svg id="Capa_1" data-name="Capa 1" xmlns="http://www.w3.org/2000/svg" viewBox="0 0 906 392.47"><defs><style>.cls-1{fill:#a7a3a2;}.cls-2{fill:#d81418;}.cls-3{fill:#13110c;}.cls-4{fill:#db1119;}.cls-5{fill:#fff;}.cls-6{fill:#e30a18;}</style></defs><g id="Imagotipo_Color" data-name="Imagotipo Color"><path class="cls-1" d="M496.68,132.41c-6.11-5.29-10.11-7-15.56-7a10.89,10.89,0,0,0-11.23,10.34,10.67,10.67,0,0,0,5,10c2.56,1.72,3.56,2.3,12.9,6.66,11.67,5.75,15.56,10.92,15.56,21.37,0,12.18-10.33,21.71-23.34,21.71-8.23,0-14.46-2.29-21.69-7.81l2-10.45c6.12,6.2,13.13,9.65,19.46,9.65,8.46,0,13.68-4.83,13.68-12.76a11.45,11.45,0,0,0-5.45-9.53c-1.67-1-3.56-2.07-5.67-3.1l-2.22-.92-2.22-1-2.12-1c-10.34-4.59-15.12-11.25-15.12-20.9a20.91,20.91,0,0,1,20.79-20.91c7.9,0,13.9,2.29,19.24,7.23Z"/><path class="cls-1" d="M559,167c.77,15.86-9.79,28.26-24.14,28.26-15.67,0-26-10.57-26-26.65,0-15.28,10.78-26.88,25-26.88S558.18,151.93,559,167Zm-40.59-.34c0,12.41,6.89,21.14,16.68,21.14,8.34,0,14.45-7.36,14.45-17.35,0-12.41-6.78-20.91-16.56-20.91C524.6,149.52,518.37,156.87,518.37,166.64Z"/><path class="cls-1" d="M600.54,153.89c-4.56-3-7.45-4-11.12-4-8.78,0-15.12,7.35-15.12,17.57,0,11.37,6.56,19.42,15.79,19.42,4.67,0,7.23-.81,12.23-3.68l3.34,6.21a25.48,25.48,0,0,1-17,5.85c-14.57,0-24.8-11.71-24-27.57.67-14.7,11.34-26,24.46-26a24.32,24.32,0,0,1,16,5.28Z"/><path class="cls-1" d="M621.34,124.14c0,3.55-2.34,6.2-5.56,6.2s-5.56-2.65-5.56-6.2,2.45-6.21,5.56-6.21S621.34,120.57,621.34,124.14Zm-1,69.61h-9.12V143.2h9.12Z"/><path class="cls-1" d="M630.46,147.45c6.78-3.79,12-5.4,17.79-5.4s10.56,2,13.34,5.52c2.11,2.53,3,6.78,3,13.33v16.65a33.5,33.5,0,0,0,.12,5.17c.33,4.25,1.66,5.63,5.44,5.63h1.34l-1.34,6.43a15.47,15.47,0,0,1-4.33.35c-4.78,0-7.79-2.07-9.12-6.21-5.67,4.72-9.45,6.32-14.9,6.32-8.67,0-14.45-6.2-14-15.28.33-8.27,5.45-13.44,15.57-16.08a94.74,94.74,0,0,1,9.45-1.72l1.78-.23.89-.23v-2.19c0-3.79-.45-5.51-1.89-7.12-1.67-1.83-4.67-2.75-8-2.52-4.56.34-8,1.6-15.12,5.74Zm25,20c-13,2-18.13,5.29-18.57,12.18-.33,5,2.78,8.38,8,8.38,4,0,6.67-1.14,10.57-4.25Z"/><path class="cls-1" d="M686.06,113.45v80.3h-9.12v-80.3Z"/><path class="cls-1" d="M716.64,118.74c11.67-.7,11.56-.7,20.9-.7,12.79,0,24.57,4.37,31.58,11.84,6.78,7.12,9.89,16,9.89,27.8,0,11.6-5.89,23.32-14.67,29.52a33.69,33.69,0,0,1-12.57,5.29,84.28,84.28,0,0,1-13.34,1.61l-6.11.11a156.92,156.92,0,0,1-15.68-.81ZM726.31,185c5,.8,5.78.8,12.12.8,19.46,0,30-10.34,30-29.4,0-10.69-6.34-21.37-15.23-25.85a37.6,37.6,0,0,0-15.46-3.91c-2-.11-4-.23-6.22-.23l-3,.12c-.11,0-1.22,0-2.22.11Z"/><path class="cls-1" d="M786.47,147.45c6.78-3.79,12-5.4,17.79-5.4s10.56,2,13.34,5.52c2.11,2.53,3,6.78,3,13.33v16.65a33.5,33.5,0,0,0,.12,5.17c.33,4.25,1.66,5.63,5.44,5.63h1.33l-1.33,6.43a15.58,15.58,0,0,1-4.34.35c-4.78,0-7.78-2.07-9.11-6.21-5.67,4.72-9.45,6.32-14.9,6.32-8.67,0-14.45-6.2-14-15.28.33-8.27,5.44-13.44,15.57-16.08a94.45,94.45,0,0,1,9.44-1.72l1.78-.23.89-.23v-2.19c0-3.79-.44-5.51-1.89-7.12-1.67-1.83-4.67-2.75-8-2.52-4.56.34-8,1.6-15.12,5.74Zm25,20c-13,2-18.12,5.29-18.56,12.18-.34,5,2.77,8.38,8,8.38,4,0,6.67-1.14,10.56-4.25Z"/><path class="cls-1" d="M857.52,150.32H844.18V177c0,8,1.44,10,7.45,10,2.22,0,4.56-.57,8.22-2.06l1.34,6.31a25.11,25.11,0,0,1-14.12,3.34c-4.67-.24-8.67-2.53-10.56-6.09-1-2-1.45-4.83-1.45-8.74V150.32H824.72v-5.85l3-.23c8.34-.58,9.68-2.07,11.12-12.3l.45-3.1H845l-.78,14.36h13.34Z"/><path class="cls-1" d="M865,147.45c6.79-3.79,12-5.4,17.79-5.4s10.57,2,13.35,5.52c2.11,2.53,3,6.78,3,13.33v16.65a36.52,36.52,0,0,0,.11,5.17c.33,4.25,1.67,5.63,5.45,5.63H906l-1.33,6.43a15.58,15.58,0,0,1-4.34.35c-4.78,0-7.78-2.07-9.12-6.21-5.67,4.72-9.45,6.32-14.9,6.32-8.67,0-14.45-6.2-14-15.28.34-8.27,5.45-13.44,15.57-16.08a94.74,94.74,0,0,1,9.45-1.72l1.78-.23.89-.23v-2.19c0-3.79-.44-5.51-1.89-7.12-1.67-1.83-4.67-2.75-8-2.52-4.55.34-8,1.6-15.12,5.74Zm25,20c-13,2-18.12,5.29-18.57,12.18-.33,5,2.78,8.38,8,8.38,4,0,6.67-1.14,10.56-4.25Z"/><path class="cls-2" d="M472.56,301.19h-9.68V225.83h9.68Z"/><path class="cls-2" d="M483.67,226.18c9.79-.92,12.79-1.15,18.13-1.15,14.45,0,23.46,7.24,23.46,18.84,0,7.12-3.23,11.94-11,16.54,4.67,1,6.89,2.07,9.79,4.71a20.67,20.67,0,0,1,6.67,15.39c0,13.1-10.56,21.49-26.8,21.49a124.79,124.79,0,0,1-13.78-.58c-1.45-.11-3.56-.34-6.46-.57Zm9.68,32.39h11.23c5.11,0,10.34-6.43,10.67-13,.34-7.35-5.78-12.87-14.34-12.87h-1.33a52.57,52.57,0,0,0-6.23.46Zm0,34.81a77.25,77.25,0,0,0,10.67.69c10.23,0,16.23-4.82,16.23-13.1A14.48,14.48,0,0,0,512,267.53c-2.23-1-5.45-1.49-9.68-1.49h-9Z"/><path class="cls-2" d="M578.08,234.1H548.62v23.32h26.9v8.28h-26.9v26.88h34.47l-1.34,8.61H538.94V225.83h39.14Z"/><path class="cls-2" d="M589.2,226.18a124.19,124.19,0,0,1,18-1.15c17.45,0,27.24,8,27.24,22.29a21.25,21.25,0,0,1-14.35,20.33l22.8,33.54H631.23l-20.68-31H598.88v31H589.2Zm9.68,36.53h14c6.45,0,11.67-6.44,11.67-14.36,0-9.77-6.34-15.17-17.79-15.17h-2.11a50.22,50.22,0,0,0-5.78.24Z"/><path class="cls-2" d="M706.62,237.67c5.45,6.89,8.45,16.08,8.45,26.42,0,22.86-15.45,38.83-37.69,38.83-21.24,0-36.91-16.89-36.91-39.87,0-21.71,16.34-38.94,36.91-38.94C689.72,224.11,699.51,228.59,706.62,237.67ZM656.7,243c-3.78,5.17-5.45,11.49-5.45,20a36.23,36.23,0,0,0,8.9,22.86,25.81,25.81,0,0,0,17.79,7.93c16.45,0,26.57-11,26.57-29S692.28,233,676.27,233A24.17,24.17,0,0,0,656.7,243Z"/><path class="cls-1" d="M203.6,50.83v116c-.78,0-1.55,0-2.33,0s-1.55,0-2.33,0V50.87c.78,0,1.55.09,2.33.09A22.74,22.74,0,0,0,203.6,50.83Z"/><path class="cls-1" d="M185.6,169.89l-4.19,2-46-95.75a15.46,15.46,0,0,0,4.19-2Z"/><path class="cls-1" d="M29.15,134.53l135.08,55.56a30.61,30.61,0,0,0-1.77,4.32L27.38,138.85A14.81,14.81,0,0,0,29.15,134.53Z"/><path class="cls-1" d="M163.11,223a37.63,37.63,0,0,0,1.94,4.23L128.27,244.4a15,15,0,0,0-2-4.23Z"/><path class="cls-1" d="M160.22,205.5c0,.78-.05,1.56-.05,2.33s.05,1.56.05,2.33H66.58a27.89,27.89,0,0,0,0-4.66Z"/><path class="cls-1" d="M181.84,244.05a36.69,36.69,0,0,0,4.23,1.94L160.73,300.6a17,17,0,0,0-4.27-1.85Z"/><path class="cls-1" d="M170.49,235a29.73,29.73,0,0,0,3.28,3.36l-91.86,91A27.1,27.1,0,0,0,78.63,326Z"/><path class="cls-1" d="M218,170.36a30.94,30.94,0,0,0-4.36-1.64L249.4,74.83a16.56,16.56,0,0,0,4.36,1.64Z"/><path class="cls-1" d="M262.22,151l-30.17,29.75a32.8,32.8,0,0,0-3.24-3.33l30.13-29.74A18.75,18.75,0,0,0,262.22,151Z"/><path class="cls-1" d="M242.28,210.16c0-.77,0-1.55,0-2.33s0-1.55,0-2.33H351.45a25,25,0,0,0,.05,4.66Z"/><path class="cls-1" d="M239.83,222,283,240.55a13.43,13.43,0,0,0-1.86,4.28L238,226.22A37.74,37.74,0,0,0,239.83,222Z"/><path class="cls-1" d="M326.94,333.71a27.45,27.45,0,0,0-3.36,3.28l-95.45-98.16a30.35,30.35,0,0,0,3.37-3.24Z"/><path class="cls-1" d="M274.92,359.18a16.49,16.49,0,0,0-4.23,1.95L216.6,246a39.59,39.59,0,0,0,4.23-2Z"/><path class="cls-2" d="M234.69,207.83a33.45,33.45,0,1,1-33.42-33.42A33.49,33.49,0,0,1,234.69,207.83Z"/><path class="cls-3" d="M222.21,31.49a22.21,22.21,0,1,1-.87-17A22.07,22.07,0,0,1,222.21,31.49Z"/><path class="cls-3" d="M289.2,150.68A22.27,22.27,0,1,1,299.7,121,22.15,22.15,0,0,1,289.2,150.68Z"/><path class="cls-2" d="M268.79,60.71a11.43,11.43,0,0,1-3.37,8.12,11.77,11.77,0,0,1-16.28,0,11.51,11.51,0,0,1,16.28-16.28v.05A11.41,11.41,0,0,1,268.79,60.71Z"/><path class="cls-2" d="M142.08,60.71a11.1,11.1,0,0,1-4.53,9.11,11,11,0,0,1-4.23,2,11.55,11.55,0,0,1-10.92-3A11.43,11.43,0,0,1,119,60.71a11.49,11.49,0,0,1,11.53-11.52,11.56,11.56,0,0,1,11.52,11.52Z"/><path class="cls-2" d="M304.88,257.17a11.51,11.51,0,1,1,0-16.27A11.51,11.51,0,0,1,304.88,257.17Z"/><path class="cls-2" d="M287.79,382.8a11.5,11.5,0,1,1,0-16.28A11.52,11.52,0,0,1,287.79,382.8Z"/><path class="cls-2" d="M124.26,249.06a11.25,11.25,0,0,1-3.42,8.11,11.75,11.75,0,0,1-16.27,0,11.5,11.5,0,1,1,16.27-16.27A11.3,11.3,0,0,1,124.26,249.06Z"/><path class="cls-4" d="M25,130.6a11.28,11.28,0,0,1-.22,2.12A10.47,10.47,0,0,1,23,137a10.1,10.1,0,0,1-1.38,1.69,11.75,11.75,0,0,1-16.27,0A11.51,11.51,0,1,1,25,130.6Z"/><path class="cls-2" d="M21.64,122.44A11.51,11.51,0,1,0,5.37,138.72a11.75,11.75,0,0,0,16.27,0A10.1,10.1,0,0,0,23,137a10.47,10.47,0,0,0,1.77-4.31A11.28,11.28,0,0,0,25,130.6,11.46,11.46,0,0,0,21.64,122.44Z"/><path class="cls-2" d="M163.41,314.16a11.41,11.41,0,0,1-3.37,8.11,11.75,11.75,0,0,1-16.27,0,11.41,11.41,0,0,1-3.37-8.11,11.59,11.59,0,0,1,3.37-8.16A11.5,11.5,0,0,1,160,306v0A11.43,11.43,0,0,1,163.41,314.16Z"/><path class="cls-3" d="M61.92,210.16a22.22,22.22,0,1,1-2-11.87,22.1,22.1,0,0,1,2,7.21A21.35,21.35,0,0,1,61.92,210.16Z"/><path class="cls-3" d="M387.85,227.91a22.28,22.28,0,0,1-29.66-10.54,22.26,22.26,0,0,1,10.53-29.61,22.13,22.13,0,0,1,17-.86,22.24,22.24,0,0,1,2.12,41Z"/><path class="cls-2" d="M82.17,354a22,22,0,0,1-11.4,12.65A22.23,22.23,0,1,1,81.3,337,22,22,0,0,1,82.17,354Z"/><path class="cls-3" d="M364.89,362a22.21,22.21,0,1,1-.86-17A22.12,22.12,0,0,1,364.89,362Z"/><path class="cls-2" d="M353.05,139.19a5.59,5.59,0,1,1-5.57-5.61A5.58,5.58,0,0,1,353.05,139.19Z"/><path class="cls-2" d="M347.48,126a17.1,17.1,0,1,0,17.06,17.1A17.08,17.08,0,0,0,347.48,126Zm9.11,27.63v-.69a6.59,6.59,0,0,0-6.56-6.6h-5.14a6.59,6.59,0,0,0-6.6,6.6v.69a14,14,0,1,1,18.3,0Z"/><path class="cls-2" d="M353.05,139.19a5.59,5.59,0,1,1-5.57-5.61A5.58,5.58,0,0,1,353.05,139.19Z"/><path class="cls-2" d="M347.48,126a17.1,17.1,0,1,0,17.06,17.1A17.08,17.08,0,0,0,347.48,126Zm9.11,27.63v-.69a6.59,6.59,0,0,0-6.56-6.6h-5.14a6.59,6.59,0,0,0-6.6,6.6v.69a14,14,0,1,1,18.3,0Z"/><path class="cls-5" d="M209.17,360.74a7.92,7.92,0,1,1-7.9-7.95A7.91,7.91,0,0,1,209.17,360.74Z"/><path class="cls-5" d="M201.27,342a24.31,24.31,0,1,0,24.3,24.3A24.34,24.34,0,0,0,201.27,342Zm13,39.33v-1a9.35,9.35,0,0,0-9.36-9.36h-7.34a9.38,9.38,0,0,0-9.37,9.36v1a19.91,19.91,0,1,1,26.07,0Z"/><path class="cls-3" d="M209.17,360.74a7.92,7.92,0,1,1-7.9-7.95A7.91,7.91,0,0,1,209.17,360.74Z"/><path class="cls-3" d="M201.27,342a24.31,24.31,0,1,0,24.3,24.3A24.34,24.34,0,0,0,201.27,342Zm13,39.33v-1a9.35,9.35,0,0,0-9.36-9.36h-7.34a9.38,9.38,0,0,0-9.37,9.36v1a19.91,19.91,0,1,1,26.07,0Z"/><path class="cls-5" d="M107.38,95.2A20.75,20.75,0,1,0,128.14,116,20.81,20.81,0,0,0,107.38,95.2Zm11.09,33.55v-.82a8,8,0,0,0-8-8h-6.26a8,8,0,0,0-8,8v.82a17,17,0,1,1,22.23,0Z"/><circle class="cls-3" cx="107.38" cy="111.24" r="6.77"/><path class="cls-3" d="M107.38,95.2A20.75,20.75,0,1,0,128.14,116,20.81,20.81,0,0,0,107.38,95.2Zm11.09,33.55v-.82a8,8,0,0,0-8-8h-6.26a8,8,0,0,0-8,8v.82a17,17,0,1,1,22.23,0Z"/></g><path class="cls-6" d="M212.15,203.24c3.22,0,3.22-5,0-5s-3.22,5,0,5Z"/></svg>